<?xml version="1.0" encoding="UTF-8" standalone="no"?>
<!-- Generator: Adobe Illustrator 16.0.0, SVG Export Plug-In . SVG Version: 6.00 Build 0)  -->

<svg
   xmlns:dc="http://purl.org/dc/elements/1.1/"
   xmlns:cc="http://creativecommons.org/ns#"
   xmlns:rdf="http://www.w3.org/1999/02/22-rdf-syntax-ns#"
   xmlns:svg="http://www.w3.org/2000/svg"
   xmlns="http://www.w3.org/2000/svg"
   xmlns:sodipodi="http://sodipodi.sourceforge.net/DTD/sodipodi-0.dtd"
   xmlns:inkscape="http://www.inkscape.org/namespaces/inkscape"
   version="1.1"
   id="Layer_1"
   x="0px"
   y="0px"
   width="26px"
   height="26px"
   viewBox="0 0 26 26"
   enable-background="new 0 0 26 26"
   xml:space="preserve"
   inkscape:version="0.48.2 r9819"
   sodipodi:docname="Flaticon_1189.svg"><metadata
   id="metadata3071"><rdf:RDF><cc:Work
       rdf:about=""><dc:format>image/svg+xml</dc:format><dc:type
         rdf:resource="http://purl.org/dc/dcmitype/StillImage" /><dc:title></dc:title></cc:Work></rdf:RDF></metadata><defs
   id="defs3069">
	
	
	
</defs><sodipodi:namedview
   pagecolor="#ffffff"
   bordercolor="#666666"
   borderopacity="1"
   objecttolerance="10"
   gridtolerance="10"
   guidetolerance="10"
   inkscape:pageopacity="0"
   inkscape:pageshadow="2"
   inkscape:window-width="1924"
   inkscape:window-height="985"
   id="namedview3067"
   showgrid="false"
   inkscape:zoom="40.23"
   inkscape:cx="12.61414"
   inkscape:cy="10.538843"
   inkscape:window-x="0"
   inkscape:window-y="0"
   inkscape:window-maximized="0"
   inkscape:current-layer="Layer_1" />

<path
   d="M 6 4 C 5.449 4 5 4.449 5 5 L 5 20 C 5 20.551 5.449 21 6 21 L 8 21 C 8.551 21 9 20.551 9 20 L 9 14 L 17 14 L 17 20 C 17 20.551 17.449 21 18 21 L 20 21 C 20.551 21 21 20.551 21 20 L 21 5 C 21 4.449 20.551 4 20 4 L 18 4 C 17.449 4 17 4.449 17 5 L 17 11 L 9 11 L 9 5 C 9 4.449 8.551 4 8 4 L 6 4 z "
   id="path3051"
   style="fill:#ffffff;fill-opacity:0.80392158"
   inkscape:export-xdpi="248.82353"
   inkscape:export-ydpi="248.82353" />
<path
   d="M 3 6 C 2.449 6 2 6.449 2 7 L 2 11 L 1 11 C 0.449 11 0 11.449 0 12 L 0 13 C 0 13.551 0.449 14 1 14 L 2 14 L 2 18 C 2 18.551 2.449 19 3 19 L 4 19 L 4 6 L 3 6 z "
   id="path3053"
   style="fill:#ffffff;fill-opacity:0.80392158"
   inkscape:export-filename="/Users/venator/Downloads/path3051-xxhdpi.png"
   inkscape:export-xdpi="248.82353"
   inkscape:export-ydpi="248.82353" />

<path
   d="M 22 6 L 22 19 L 23 19 C 23.551 19 24 18.551 24 18 L 24 14 L 25 14 C 25.551 14 26 13.551 26 13 L 26 12 C 26 11.449 25.551 11 25 11 L 24 11 L 24 7 C 24 6.449 23.551 6 23 6 L 22 6 z "
   id="path3057"
   style="fill:#ffffff;fill-opacity:0.80392158"
   inkscape:export-filename="/Users/venator/Downloads/path3051-xxhdpi.png"
   inkscape:export-xdpi="248.82353"
   inkscape:export-ydpi="248.82353" />

</svg>